# xmcd
#
# Track frame offsets: 
#        150
#        17237
#        30856
#        43082
#        68280
#        87118
#        105445
#        127396
#        145433
#        160553
#        181905
#        193710
#        208497
#        229929
#        249796
#        268564
#        280841
#        301603
#        319483
#        336599
#
# Disc length: 4776 seconds
#
# Revision: 0
# Processed by: cddbd v1.5.1PL0 Copyright (c) Steve Scherf et al.
# Submitted via: ExactAudioCopy v0.95b1
#
DISCID=1a12a614
DTITLE=John Denver - Best Collection
DYEAR=2003
DGENRE=Country
TTITLE0=A Country Girl In Paris
TTITLE1=Annie's Song
TTITLE2=Alaska and Me
TTITLE3=Amazon (Let This Be A Voice)
TTITLE4=Fly Away
TTITLE5=Calypso
TTITLE6=Today
TTITLE7=Eli's Song
TTITLE8=Pegasus
TTITLE9=Bach Stone Again
TTITLE10=Love Again
TTITLE11=Country Roads
TTITLE12=Eagles And Horses
TTITLE13=Rocky Mountain High
TTITLE14=Berkeley Woman
TTITLE15=Garden Song
TTITLE16=Sail Away Home
TTITLE17=Thanks To You
TTITLE18=I Want To Live
TTITLE19=My Sweet Lady
EXTD=
EXTT0=
EXTT1=
EXTT2=
EXTT3=
EXTT4=
EXTT5=
EXTT6=
EXTT7=
EXTT8=
EXTT9=
EXTT10=
EXTT11=
EXTT12=
EXTT13=
EXTT14=
EXTT15=
EXTT16=
EXTT17=
EXTT18=
EXTT19=
PLAYORDER=
